<svg width="100" height="110" viewBox="0 0 100 110" fill="none" xmlns="http://www.w3.org/2000/svg">
<rect x="45.9492" y="1.10547" width="1.10295" height="1.10295" transform="rotate(-90 45.9492 1.10547)" fill="#C00000"/>
<rect x="47.0547" y="1.10547" width="1.10295" height="1.10295" transform="rotate(-90 47.0547 1.10547)" fill="#C00000"/>
<rect x="45.9492" y="2.20703" width="1.10295" height="3.30886" transform="rotate(-90 45.9492 2.20703)" fill="#C00000"/>
<rect x="49.2578" y="2.20703" width="1.10295" height="1.10295" transform="rotate(-90 49.2578 2.20703)" fill="#C00000"/>
<rect x="50.3594" y="2.20703" width="1.10295" height="1.10295" transform="rotate(-90 50.3594 2.20703)" fill="#C00000"/>
<rect x="51.4648" y="2.20703" width="1.10295" height="1.10295" transform="rotate(-90 51.4648 2.20703)" fill="#C00000"/>
<rect x="45.9492" y="3.30859" width="1.10295" height="7.72068" transform="rotate(-90 45.9492 3.30859)" fill="#C00000"/>
<rect x="53.6719" y="3.30859" width="1.10295" height="1.10295" transform="rotate(-90 53.6719 3.30859)" fill="#C00000"/>
<rect x="45.9492" y="4.41406" width="1.10295" height="9.92659" transform="rotate(-90 45.9492 4.41406)" fill="#C00000"/>
<rect x="55.875" y="4.41406" width="1.10295" height="1.10295" transform="rotate(-90 55.875 4.41406)" fill="#C00000"/>
<rect x="45.9492" y="5.51562" width="1.10295" height="12.1325" transform="rotate(-90 45.9492 5.51562)" fill="#C00000"/>
<rect x="45.9492" y="6.61719" width="1.10295" height="13.2355" transform="rotate(-90 45.9492 6.61719)" fill="#C00000"/>
<rect x="59.1836" y="6.61719" width="1.10295" height="1.10295" transform="rotate(-90 59.1836 6.61719)" fill="#C00000"/>
<rect x="49.2578" y="5.51562" width="1.10295" height="1.10295" transform="rotate(-90 49.2578 5.51562)" fill="#FE7070"/>
<rect x="49.2578" y="5.51562" width="1.10295" height="1.10295" transform="rotate(-90 49.2578 5.51562)" fill="#FE7070"/>
<rect x="48.1562" y="6.61719" width="1.10295" height="1.10295" transform="rotate(-90 48.1562 6.61719)" fill="#FE7070"/>
<rect x="48.1562" y="6.61719" width="1.10295" height="1.10295" transform="rotate(-90 48.1562 6.61719)" fill="#FE7070"/>
<rect x="50.3594" y="6.61719" width="1.10295" height="1.10295" transform="rotate(-90 50.3594 6.61719)" fill="#FE7070"/>
<rect x="50.3594" y="6.61719" width="1.10295" height="1.10295" transform="rotate(-90 50.3594 6.61719)" fill="#FE7070"/>
<rect x="50.3594" y="5.51562" width="1.10295" height="1.10295" transform="rotate(-90 50.3594 5.51562)" fill="#FE7070"/>
<rect x="50.3594" y="5.51562" width="1.10295" height="1.10295" transform="rotate(-90 50.3594 5.51562)" fill="#FE7070"/>
<rect x="49.2578" y="6.61719" width="1.10295" height="1.10295" transform="rotate(-90 49.2578 6.61719)" fill="#FE7070"/>
<rect x="49.2578" y="6.61719" width="1.10295" height="1.10295" transform="rotate(-90 49.2578 6.61719)" fill="#FE7070"/>
<rect x="51.4648" y="6.61719" width="1.10295" height="1.10295" transform="rotate(-90 51.4648 6.61719)" fill="#FE7070"/>
<rect x="51.4648" y="6.61719" width="1.10295" height="1.10295" transform="rotate(-90 51.4648 6.61719)" fill="#FE7070"/>
<rect x="13.9609" width="16.5443" height="88.2363" fill="#C00000"/>
<rect x="30.5039" y="16.543" width="16.5443" height="15.4414" transform="rotate(-90 30.5039 16.543)" fill="#C00000"/>
<rect x="45.9492" y="16.543" width="8.82363" height="15.4414" transform="rotate(-90 45.9492 16.543)" fill="#C00000"/>
<rect x="45.9492" y="52.9414" width="8.82363" height="15.4414" transform="rotate(-90 45.9492 52.9414)" fill="#C00000"/>
<rect x="51.4648" y="48.5352" width="8.82363" height="15.4414" transform="rotate(-90 51.4648 48.5352)" fill="#C00000"/>
<rect x="55.875" y="40.8125" width="15.4414" height="15.4414" transform="rotate(-90 55.875 40.8125)" fill="#C00000"/>
<rect x="55.875" y="29.7852" width="15.4414" height="12.1325" transform="rotate(-90 55.875 29.7852)" fill="#C00000"/>
<rect x="43.7422" y="60.6641" width="8.82363" height="15.4414" transform="rotate(-90 43.7422 60.6641)" fill="#C00000"/>
<rect x="61.3906" y="87.1406" width="8.82363" height="15.4414" transform="rotate(-90 61.3906 87.1406)" fill="#C00000"/>
<rect x="55.875" y="78.3086" width="6.61773" height="15.4414" transform="rotate(-90 55.875 78.3086)" fill="#C00000"/>
<rect x="51.4648" y="72.793" width="6.61773" height="15.4414" transform="rotate(-90 51.4648 72.793)" fill="#C00000"/>
<rect x="47.0547" y="67.2812" width="6.61773" height="15.4414" transform="rotate(-90 47.0547 67.2812)" fill="#C00000"/>
<rect x="45.9492" y="7.71875" width="1.10295" height="15.4414" transform="rotate(-90 45.9492 7.71875)" fill="#C00000"/>
<rect x="61.3906" y="8.82422" width="1.10295" height="1.10295" transform="rotate(-90 61.3906 8.82422)" fill="#C00000"/>
<rect x="61.3906" y="9.92578" width="1.10295" height="2.20591" transform="rotate(-90 61.3906 9.92578)" fill="#C00000"/>
<rect x="61.3906" y="11.0312" width="1.10295" height="3.30886" transform="rotate(-90 61.3906 11.0312)" fill="#C00000"/>
<rect x="61.3906" y="12.1328" width="1.10295" height="4.41182" transform="rotate(-90 61.3906 12.1328)" fill="#C00000"/>
<rect x="61.3906" y="13.2383" width="1.10295" height="5.51477" transform="rotate(-90 61.3906 13.2383)" fill="#C00000"/>
<rect x="61.3906" y="14.3359" width="1.10295" height="6.61773" transform="rotate(-90 61.3906 14.3359)" fill="#C00000"/>
<rect x="66.9062" y="15.4414" width="1.10295" height="1.10295" transform="rotate(-90 66.9062 15.4414)" fill="#C00000"/>
<rect x="68.0078" y="16.543" width="1.10295" height="1.10295" transform="rotate(-90 68.0078 16.543)" fill="#C00000"/>
<rect x="68.0078" y="17.6484" width="1.10295" height="1.10295" transform="rotate(-90 68.0078 17.6484)" fill="#C00000"/>
<rect x="68.0078" y="18.75" width="1.10295" height="2.20591" transform="rotate(-90 68.0078 18.75)" fill="#C00000"/>
<rect x="68.0078" y="19.8555" width="1.10295" height="2.20591" transform="rotate(-90 68.0078 19.8555)" fill="#C00000"/>
<rect x="68.0078" y="20.9531" width="1.10295" height="2.20591" transform="rotate(-90 68.0078 20.9531)" fill="#C00000"/>
<rect x="68.0078" y="22.0586" width="1.10295" height="3.30886" transform="rotate(-90 68.0078 22.0586)" fill="#C00000"/>
<rect x="68.0078" y="23.1602" width="1.10295" height="3.30886" transform="rotate(-90 68.0078 23.1602)" fill="#C00000"/>
<rect x="68.0078" y="24.2656" width="1.10295" height="3.30886" transform="rotate(-90 68.0078 24.2656)" fill="#C00000"/>
<rect x="68.0078" y="25.3672" width="1.10295" height="3.30886" transform="rotate(-90 68.0078 25.3672)" fill="#C00000"/>
<rect x="71.3164" y="26.4727" width="1.10295" height="1.10295" transform="rotate(-90 71.3164 26.4727)" fill="#C00000"/>
<rect x="71.3164" y="27.5703" width="1.10295" height="1.10295" transform="rotate(-90 71.3164 27.5703)" fill="#C00000"/>
<rect x="71.3164" y="28.6836" width="1.10295" height="1.10295" transform="rotate(-90 71.3164 28.6836)" fill="#C00000"/>
<rect x="71.3164" y="29.7852" width="1.10295" height="1.10295" transform="rotate(-90 71.3164 29.7852)" fill="#C00000"/>
<rect x="71.3164" y="30.8867" width="1.10295" height="1.10295" transform="rotate(-90 71.3164 30.8867)" fill="#C00000"/>
<rect x="71.3164" y="31.9883" width="1.10295" height="1.10295" transform="rotate(-90 71.3164 31.9883)" fill="#C00000"/>
<rect x="71.3164" y="33.0938" width="1.10295" height="1.10295" transform="rotate(-90 71.3164 33.0938)" fill="#C00000"/>
<rect x="71.3164" y="34.1953" width="1.10295" height="1.10295" transform="rotate(-90 71.3164 34.1953)" fill="#C00000"/>
<rect x="71.3164" y="35.3008" width="1.10295" height="1.10295" transform="rotate(-90 71.3164 35.3008)" fill="#C00000"/>
<rect x="70.2109" y="36.4023" width="1.10295" height="1.10295" transform="rotate(-90 70.2109 36.4023)" fill="#C00000"/>
<rect x="70.2109" y="37.5039" width="1.10295" height="1.10295" transform="rotate(-90 70.2109 37.5039)" fill="#C00000"/>
<rect x="70.2109" y="38.6055" width="1.10295" height="1.10295" transform="rotate(-90 70.2109 38.6055)" fill="#C00000"/>
<rect x="70.2109" y="39.7109" width="1.10295" height="1.10295" transform="rotate(-90 70.2109 39.7109)" fill="#C00000"/>
<rect x="70.2109" y="40.8125" width="1.10295" height="1.10295" transform="rotate(-90 70.2109 40.8125)" fill="#C00000"/>
<rect x="66.9062" y="41.918" width="1.10295" height="3.30886" transform="rotate(-90 66.9062 41.918)" fill="#C00000"/>
<rect x="66.9062" y="43.0195" width="1.10295" height="3.30886" transform="rotate(-90 66.9062 43.0195)" fill="#C00000"/>
<rect x="66.9062" y="44.1211" width="1.10295" height="2.20591" transform="rotate(-90 66.9062 44.1211)" fill="#C00000"/>
<rect x="66.9062" y="45.2227" width="1.10295" height="2.20591" transform="rotate(-90 66.9062 45.2227)" fill="#C00000"/>
<rect x="66.9062" y="46.3281" width="1.10295" height="1.10295" transform="rotate(-90 66.9062 46.3281)" fill="#C00000"/>
<rect x="65.8008" y="47.4297" width="1.10295" height="1.10295" transform="rotate(-90 65.8008 47.4297)" fill="#C00000"/>
<rect x="65.8008" y="48.5352" width="1.10295" height="1.10295" transform="rotate(-90 65.8008 48.5352)" fill="#C00000"/>
<rect x="61.3906" y="49.6367" width="1.10295" height="4.41182" transform="rotate(-90 61.3906 49.6367)" fill="#C00000"/>
<rect x="61.3906" y="50.7383" width="1.10295" height="3.30886" transform="rotate(-90 61.3906 50.7383)" fill="#C00000"/>
<rect x="61.3906" y="51.8398" width="1.10295" height="2.20591" transform="rotate(-90 61.3906 51.8398)" fill="#C00000"/>
<rect x="61.3906" y="52.9414" width="1.10295" height="1.10295" transform="rotate(-90 61.3906 52.9414)" fill="#C00000"/>
<rect x="60.2891" y="54.0469" width="1.10295" height="1.10295" transform="rotate(-90 60.2891 54.0469)" fill="#C00000"/>
<rect x="59.1836" y="54.0469" width="1.10295" height="1.10295" transform="rotate(-90 59.1836 54.0469)" fill="#C00000"/>
<rect x="59.1836" y="55.1484" width="1.10295" height="1.10295" transform="rotate(-90 59.1836 55.1484)" fill="#C00000"/>
<rect x="58.082" y="56.2539" width="1.10295" height="1.10295" transform="rotate(-90 58.082 56.2539)" fill="#C00000"/>
<rect x="59.1836" y="57.3516" width="1.10295" height="1.10295" transform="rotate(-90 59.1836 57.3516)" fill="#C00000"/>
<rect x="59.1836" y="58.457" width="1.10295" height="2.20591" transform="rotate(-90 59.1836 58.457)" fill="#C00000"/>
<rect x="59.1836" y="59.5586" width="1.10295" height="3.30886" transform="rotate(-90 59.1836 59.5586)" fill="#C00000"/>
<rect x="59.1836" y="60.6641" width="1.10295" height="4.41182" transform="rotate(-90 59.1836 60.6641)" fill="#C00000"/>
<rect x="62.4922" y="61.7656" width="1.10295" height="2.20591" transform="rotate(-90 62.4922 61.7656)" fill="#C00000"/>
<rect x="62.4922" y="62.8711" width="1.10295" height="2.20591" transform="rotate(-90 62.4922 62.8711)" fill="#C00000"/>
<rect x="62.4922" y="63.9727" width="1.10295" height="3.30886" transform="rotate(-90 62.4922 63.9727)" fill="#C00000"/>
<rect x="62.4922" y="65.0742" width="1.10295" height="4.41182" transform="rotate(-90 62.4922 65.0742)" fill="#C00000"/>
<rect x="62.4922" y="66.1758" width="1.10295" height="5.51477" transform="rotate(-90 62.4922 66.1758)" fill="#C00000"/>
<rect x="66.9062" y="67.2812" width="1.10295" height="1.10295" transform="rotate(-90 66.9062 67.2812)" fill="#C00000"/>
<rect x="66.9062" y="68.3828" width="1.10295" height="2.20591" transform="rotate(-90 66.9062 68.3828)" fill="#C00000"/>
<rect x="66.9062" y="69.4883" width="1.10295" height="3.30886" transform="rotate(-90 66.9062 69.4883)" fill="#C00000"/>
<rect x="66.9062" y="70.5898" width="1.10295" height="4.41182" transform="rotate(-90 66.9062 70.5898)" fill="#C00000"/>
<rect x="66.9062" y="71.6914" width="1.10295" height="4.41182" transform="rotate(-90 66.9062 71.6914)" fill="#C00000"/>
<rect x="71.3164" y="72.793" width="1.10295" height="1.10295" transform="rotate(-90 71.3164 72.793)" fill="#C00000"/>
<rect x="71.3164" y="73.8984" width="1.10295" height="2.20591" transform="rotate(-90 71.3164 73.8984)" fill="#C00000"/>
<rect x="71.3164" y="75" width="1.10295" height="3.30886" transform="rotate(-90 71.3164 75)" fill="#C00000"/>
<rect x="71.3164" y="76.1055" width="1.10295" height="3.30886" transform="rotate(-90 71.3164 76.1055)" fill="#C00000"/>
<rect x="71.3164" y="77.207" width="1.10295" height="4.41182" transform="rotate(-90 71.3164 77.207)" fill="#C00000"/>
<rect x="71.3164" y="78.3086" width="1.10295" height="5.51477" transform="rotate(-90 71.3164 78.3086)" fill="#C00000"/>
<rect x="76.8281" y="79.4102" width="1.10295" height="1.10295" transform="rotate(-90 76.8281 79.4102)" fill="#C00000"/>
<rect x="76.8281" y="80.5156" width="1.10295" height="1.10295" transform="rotate(-90 76.8281 80.5156)" fill="#C00000"/>
<rect x="76.8281" y="81.6211" width="1.10295" height="2.20591" transform="rotate(-90 76.8281 81.6211)" fill="#C00000"/>
<rect x="76.8281" y="82.7266" width="1.10295" height="3.30886" transform="rotate(-90 76.8281 82.7266)" fill="#C00000"/>
<rect x="76.8281" y="83.8281" width="1.10295" height="4.41182" transform="rotate(-90 76.8281 83.8281)" fill="#C00000"/>
<rect x="76.8281" y="84.9336" width="1.10295" height="5.51477" transform="rotate(-90 76.8281 84.9336)" fill="#C00000"/>
<rect x="76.8281" y="86.0352" width="1.10295" height="6.61773" transform="rotate(-90 76.8281 86.0352)" fill="#C00000"/>
<rect x="76.8281" y="87.1406" width="1.10295" height="7.72068" transform="rotate(-90 76.8281 87.1406)" fill="#C00000"/>
<rect x="83.4453" y="88.2383" width="1.10295" height="1.10295" transform="rotate(-90 83.4453 88.2383)" fill="#C00000"/>
<rect x="82.3398" y="88.2383" width="1.10295" height="1.10295" transform="rotate(-90 82.3398 88.2383)" fill="#C00000"/>
<rect x="81.2422" y="88.2383" width="1.10295" height="1.10295" transform="rotate(-90 81.2422 88.2383)" fill="#C00000"/>
<rect x="80.1367" y="88.2383" width="1.10295" height="1.10295" transform="rotate(-90 80.1367 88.2383)" fill="#C00000"/>
<rect x="79.0352" y="88.2383" width="1.10295" height="1.10295" transform="rotate(-90 79.0352 88.2383)" fill="#C00000"/>
<rect x="77.9297" y="88.2383" width="1.10295" height="1.10295" transform="rotate(-90 77.9297 88.2383)" fill="#C00000"/>
<rect x="76.8281" y="88.2383" width="1.10295" height="1.10295" transform="rotate(-90 76.8281 88.2383)" fill="#C00000"/>
<rect x="75.7227" y="88.2383" width="1.10295" height="1.10295" transform="rotate(-90 75.7227 88.2383)" fill="#C00000"/>
<rect x="74.625" y="88.2383" width="1.10295" height="1.10295" transform="rotate(-90 74.625 88.2383)" fill="#C00000"/>
<rect x="73.5234" y="88.2383" width="1.10295" height="1.10295" transform="rotate(-90 73.5234 88.2383)" fill="#C00000"/>
<rect x="72.418" y="88.2383" width="1.10295" height="1.10295" transform="rotate(-90 72.418 88.2383)" fill="#C00000"/>
<rect x="71.3164" y="88.2383" width="1.10295" height="1.10295" transform="rotate(-90 71.3164 88.2383)" fill="#C00000"/>
<rect x="70.2109" y="88.2383" width="1.10295" height="1.10295" transform="rotate(-90 70.2109 88.2383)" fill="#C00000"/>
<rect x="69.1094" y="88.2383" width="1.10295" height="1.10295" transform="rotate(-90 69.1094 88.2383)" fill="#C00000"/>
<rect x="68.0078" y="88.2383" width="1.10295" height="1.10295" transform="rotate(-90 68.0078 88.2383)" fill="#C00000"/>
<rect x="66.9062" y="88.2383" width="1.10295" height="1.10295" transform="rotate(-90 66.9062 88.2383)" fill="#C00000"/>
<rect x="65.8008" y="88.2383" width="1.10295" height="1.10295" transform="rotate(-90 65.8008 88.2383)" fill="#C00000"/>
<rect x="64.6992" y="88.2383" width="1.10295" height="1.10295" transform="rotate(-90 64.6992 88.2383)" fill="#C00000"/>
<rect x="63.5938" y="88.2383" width="1.10295" height="1.10295" transform="rotate(-90 63.5938 88.2383)" fill="#C00000"/>
<rect x="62.4922" y="88.2383" width="1.10295" height="1.10295" transform="rotate(-90 62.4922 88.2383)" fill="#C00000"/>
<rect x="4.03906" y="101.473" width="1.10295" height="63.9713" transform="rotate(-90 4.03906 101.473)" fill="#C00000"/>
<rect x="6.24219" y="103.68" width="1.10295" height="45.2211" transform="rotate(-90 6.24219 103.68)" fill="#C00000"/>
<rect x="7.34375" y="104.781" width="1.10295" height="1.10295" transform="rotate(-90 7.34375 104.781)" fill="#C00000"/>
<rect x="8.44922" y="105.887" width="1.10295" height="25.3679" transform="rotate(-90 8.44922 105.887)" fill="#C00000"/>
<rect x="9.55078" y="106.988" width="1.10295" height="1.10295" transform="rotate(-90 9.55078 106.988)" fill="#C00000"/>
<rect x="10.6562" y="106.988" width="1.10295" height="1.10295" transform="rotate(-90 10.6562 106.988)" fill="#C00000"/>
<rect x="11.7539" y="108.094" width="1.10295" height="1.10295" transform="rotate(-90 11.7539 108.094)" fill="#C00000"/>
<rect x="12.8594" y="108.094" width="1.10295" height="5.51477" transform="rotate(-90 12.8594 108.094)" fill="#C00000"/>
<rect x="13.9609" y="109.191" width="1.10295" height="1.10295" transform="rotate(-90 13.9609 109.191)" fill="#C00000"/>
<rect x="15.0664" y="109.191" width="1.10295" height="1.10295" transform="rotate(-90 15.0664 109.191)" fill="#C00000"/>
<rect x="16.168" y="109.191" width="1.10295" height="1.10295" transform="rotate(-90 16.168 109.191)" fill="#C00000"/>
<rect x="17.2734" y="109.191" width="1.10295" height="1.10295" transform="rotate(-90 17.2734 109.191)" fill="#C00000"/>
<rect x="18.3711" y="108.094" width="1.10295" height="1.10295" transform="rotate(-90 18.3711 108.094)" fill="#C00000"/>
<rect x="19.4766" y="108.094" width="1.10295" height="1.10295" transform="rotate(-90 19.4766 108.094)" fill="#C00000"/>
<rect x="20.5781" y="108.094" width="1.10295" height="1.10295" transform="rotate(-90 20.5781 108.094)" fill="#C00000"/>
<rect x="21.6836" y="108.094" width="1.10295" height="1.10295" transform="rotate(-90 21.6836 108.094)" fill="#C00000"/>
<rect x="22.7852" y="108.094" width="1.10295" height="1.10295" transform="rotate(-90 22.7852 108.094)" fill="#C00000"/>
<rect x="23.8906" y="108.094" width="1.10295" height="1.10295" transform="rotate(-90 23.8906 108.094)" fill="#C00000"/>
<rect x="11.7539" y="106.988" width="1.10295" height="14.3384" transform="rotate(-90 11.7539 106.988)" fill="#C00000"/>
<rect x="26.0898" y="106.988" width="1.10295" height="1.10295" transform="rotate(-90 26.0898 106.988)" fill="#C00000"/>
<rect x="27.1953" y="106.988" width="1.10295" height="1.10295" transform="rotate(-90 27.1953 106.988)" fill="#C00000"/>
<rect x="28.2969" y="106.988" width="1.10295" height="1.10295" transform="rotate(-90 28.2969 106.988)" fill="#C00000"/>
<rect x="29.4023" y="106.988" width="1.10295" height="1.10295" transform="rotate(-90 29.4023 106.988)" fill="#C00000"/>
<rect x="30.5039" y="106.988" width="1.10295" height="1.10295" transform="rotate(-90 30.5039 106.988)" fill="#C00000"/>
<rect x="31.6055" y="106.988" width="1.10295" height="1.10295" transform="rotate(-90 31.6055 106.988)" fill="#C00000"/>
<rect x="32.707" y="106.988" width="1.10295" height="1.10295" transform="rotate(-90 32.707 106.988)" fill="#C00000"/>
<rect x="33.8125" y="105.887" width="1.10295" height="1.10295" transform="rotate(-90 33.8125 105.887)" fill="#C00000"/>
<rect x="34.9141" y="105.887" width="1.10295" height="1.10295" transform="rotate(-90 34.9141 105.887)" fill="#C00000"/>
<rect x="36.0195" y="105.887" width="1.10295" height="1.10295" transform="rotate(-90 36.0195 105.887)" fill="#C00000"/>
<rect x="37.125" y="105.887" width="1.10295" height="1.10295" transform="rotate(-90 37.125 105.887)" fill="#C00000"/>
<rect x="38.2305" y="105.887" width="1.10295" height="1.10295" transform="rotate(-90 38.2305 105.887)" fill="#C00000"/>
<rect x="39.332" y="105.887" width="1.10295" height="1.10295" transform="rotate(-90 39.332 105.887)" fill="#C00000"/>
<rect x="40.4375" y="105.887" width="1.10295" height="1.10295" transform="rotate(-90 40.4375 105.887)" fill="#C00000"/>
<rect x="41.5391" y="105.887" width="1.10295" height="1.10295" transform="rotate(-90 41.5391 105.887)" fill="#C00000"/>
<rect x="42.6406" y="105.887" width="1.10295" height="1.10295" transform="rotate(-90 42.6406 105.887)" fill="#C00000"/>
<rect x="43.7422" y="105.887" width="1.10295" height="1.10295" transform="rotate(-90 43.7422 105.887)" fill="#C00000"/>
<rect x="8.44922" y="104.781" width="1.10295" height="37.5004" transform="rotate(-90 8.44922 104.781)" fill="#C00000"/>
<rect x="45.9492" y="104.781" width="1.10295" height="1.10295" transform="rotate(-90 45.9492 104.781)" fill="#C00000"/>
<rect x="47.0547" y="104.781" width="1.10295" height="1.10295" transform="rotate(-90 47.0547 104.781)" fill="#C00000"/>
<rect x="48.1562" y="104.781" width="1.10295" height="1.10295" transform="rotate(-90 48.1562 104.781)" fill="#C00000"/>
<rect x="49.2578" y="104.781" width="1.10295" height="1.10295" transform="rotate(-90 49.2578 104.781)" fill="#C00000"/>
<rect x="50.3594" y="104.781" width="1.10295" height="1.10295" transform="rotate(-90 50.3594 104.781)" fill="#C00000"/>
<rect x="51.4648" y="103.68" width="1.10295" height="1.10295" transform="rotate(-90 51.4648 103.68)" fill="#C00000"/>
<rect x="52.5664" y="103.68" width="1.10295" height="1.10295" transform="rotate(-90 52.5664 103.68)" fill="#C00000"/>
<rect x="53.6719" y="103.68" width="1.10295" height="1.10295" transform="rotate(-90 53.6719 103.68)" fill="#C00000"/>
<rect x="54.7734" y="103.68" width="1.10295" height="1.10295" transform="rotate(-90 54.7734 103.68)" fill="#C00000"/>
<rect x="55.875" y="103.68" width="1.10295" height="1.10295" transform="rotate(-90 55.875 103.68)" fill="#C00000"/>
<rect x="56.9766" y="103.68" width="1.10295" height="1.10295" transform="rotate(-90 56.9766 103.68)" fill="#C00000"/>
<rect x="58.082" y="103.68" width="1.10295" height="1.10295" transform="rotate(-90 58.082 103.68)" fill="#C00000"/>
<rect x="6.24219" y="102.578" width="1.10295" height="54.0448" transform="rotate(-90 6.24219 102.578)" fill="#C00000"/>
<rect x="60.2891" y="102.578" width="1.10295" height="1.10295" transform="rotate(-90 60.2891 102.578)" fill="#C00000"/>
<rect x="61.3906" y="102.578" width="1.10295" height="1.10295" transform="rotate(-90 61.3906 102.578)" fill="#C00000"/>
<rect x="62.4922" y="102.578" width="1.10295" height="1.10295" transform="rotate(-90 62.4922 102.578)" fill="#C00000"/>
<rect x="63.5938" y="102.578" width="1.10295" height="1.10295" transform="rotate(-90 63.5938 102.578)" fill="#C00000"/>
<rect x="64.6992" y="102.578" width="1.10295" height="1.10295" transform="rotate(-90 64.6992 102.578)" fill="#C00000"/>
<rect x="65.8008" y="102.578" width="1.10295" height="1.10295" transform="rotate(-90 65.8008 102.578)" fill="#C00000"/>
<rect x="66.9062" y="102.578" width="1.10295" height="1.10295" transform="rotate(-90 66.9062 102.578)" fill="#C00000"/>
<rect x="68.0078" y="102.578" width="1.10295" height="1.10295" transform="rotate(-90 68.0078 102.578)" fill="#C00000"/>
<rect x="68.0078" y="101.473" width="1.10295" height="1.10295" transform="rotate(-90 68.0078 101.473)" fill="#C00000"/>
<rect x="69.1094" y="101.473" width="1.10295" height="1.10295" transform="rotate(-90 69.1094 101.473)" fill="#C00000"/>
<rect x="70.2109" y="101.473" width="1.10295" height="1.10295" transform="rotate(-90 70.2109 101.473)" fill="#C00000"/>
<rect x="71.3164" y="101.473" width="1.10295" height="1.10295" transform="rotate(-90 71.3164 101.473)" fill="#C00000"/>
<rect x="72.418" y="101.473" width="1.10295" height="1.10295" transform="rotate(-90 72.418 101.473)" fill="#C00000"/>
<rect x="73.5234" y="101.473" width="1.10295" height="1.10295" transform="rotate(-90 73.5234 101.473)" fill="#C00000"/>
<rect x="74.625" y="101.473" width="1.10295" height="1.10295" transform="rotate(-90 74.625 101.473)" fill="#C00000"/>
<rect x="75.7227" y="101.473" width="1.10295" height="1.10295" transform="rotate(-90 75.7227 101.473)" fill="#C00000"/>
<rect x="76.8281" y="100.375" width="1.10295" height="1.10295" transform="rotate(-90 76.8281 100.375)" fill="#C00000"/>
<rect x="77.9297" y="100.375" width="1.10295" height="1.10295" transform="rotate(-90 77.9297 100.375)" fill="#C00000"/>
<rect x="79.0352" y="100.375" width="1.10295" height="1.10295" transform="rotate(-90 79.0352 100.375)" fill="#C00000"/>
<rect x="80.1367" y="100.375" width="1.10295" height="1.10295" transform="rotate(-90 80.1367 100.375)" fill="#C00000"/>
<rect x="81.2422" y="100.375" width="1.10295" height="1.10295" transform="rotate(-90 81.2422 100.375)" fill="#C00000"/>
<rect x="82.3398" y="100.375" width="1.10295" height="1.10295" transform="rotate(-90 82.3398 100.375)" fill="#C00000"/>
<rect x="4.03906" y="100.375" width="1.10295" height="72.795" transform="rotate(-90 4.03906 100.375)" fill="#C00000"/>
<rect x="1.83203" y="99.2695" width="1.10295" height="87.1334" transform="rotate(-90 1.83203 99.2695)" fill="#C00000"/>
<rect x="61.3906" y="87.1406" width="1.10295" height="1.10295" transform="rotate(-90 61.3906 87.1406)" fill="#C00000"/>
<rect x="61.3906" y="86.0352" width="1.10295" height="1.10295" transform="rotate(-90 61.3906 86.0352)" fill="#C00000"/>
<rect x="60.2891" y="84.9336" width="1.10295" height="1.10295" transform="rotate(-90 60.2891 84.9336)" fill="#C00000"/>
<rect x="59.1836" y="83.8281" width="1.10295" height="2.20591" transform="rotate(-90 59.1836 83.8281)" fill="#C00000"/>
<rect x="58.082" y="82.7266" width="1.10295" height="3.30886" transform="rotate(-90 58.082 82.7266)" fill="#C00000"/>
<rect x="58.082" y="81.6211" width="1.10295" height="3.30886" transform="rotate(-90 58.082 81.6211)" fill="#C00000"/>
<rect x="56.9766" y="80.5156" width="1.10295" height="4.41182" transform="rotate(-90 56.9766 80.5156)" fill="#C00000"/>
<rect x="55.875" y="79.4102" width="1.10295" height="5.51477" transform="rotate(-90 55.875 79.4102)" fill="#C00000"/>
<rect x="54.7734" y="78.3086" width="1.10295" height="1.10295" transform="rotate(-90 54.7734 78.3086)" fill="#C00000"/>
<rect x="54.7734" y="77.207" width="1.10295" height="1.10295" transform="rotate(-90 54.7734 77.207)" fill="#C00000"/>
<rect x="53.6719" y="76.1055" width="1.10295" height="2.20591" transform="rotate(-90 53.6719 76.1055)" fill="#C00000"/>
<rect x="52.5664" y="75" width="1.10295" height="3.30886" transform="rotate(-90 52.5664 75)" fill="#C00000"/>
<rect x="51.4648" y="73.8984" width="1.10295" height="5.51477" transform="rotate(-90 51.4648 73.8984)" fill="#C00000"/>
<rect x="50.3594" y="72.793" width="1.10295" height="1.10295" transform="rotate(-90 50.3594 72.793)" fill="#C00000"/>
<rect x="50.3594" y="71.6914" width="1.10295" height="1.10295" transform="rotate(-90 50.3594 71.6914)" fill="#C00000"/>
<rect x="49.2578" y="70.5898" width="1.10295" height="2.20591" transform="rotate(-90 49.2578 70.5898)" fill="#C00000"/>
<rect x="48.1562" y="69.4883" width="1.10295" height="3.30886" transform="rotate(-90 48.1562 69.4883)" fill="#C00000"/>
<rect x="48.1562" y="68.3828" width="1.10295" height="3.30886" transform="rotate(-90 48.1562 68.3828)" fill="#C00000"/>
<rect x="47.0547" y="67.2812" width="1.10295" height="1.10295" transform="rotate(-90 47.0547 67.2812)" fill="#C00000"/>
<rect x="45.9492" y="66.1758" width="1.10295" height="1.10295" transform="rotate(-90 45.9492 66.1758)" fill="#C00000"/>
<rect x="44.8477" y="65.0742" width="1.10295" height="1.10295" transform="rotate(-90 44.8477 65.0742)" fill="#C00000"/>
<rect x="45.9492" y="65.0742" width="1.10295" height="1.10295" transform="rotate(-90 45.9492 65.0742)" fill="#C00000"/>
<rect x="43.7422" y="63.9727" width="1.10295" height="1.10295" transform="rotate(-90 43.7422 63.9727)" fill="#C00000"/>
<rect x="43.7422" y="62.8711" width="1.10295" height="1.10295" transform="rotate(-90 43.7422 62.8711)" fill="#C00000"/>
<rect x="42.6406" y="61.7656" width="1.10295" height="4.41182" transform="rotate(-90 42.6406 61.7656)" fill="#C00000"/>
<rect x="44.8477" y="63.9727" width="2.20591" height="2.20591" transform="rotate(-90 44.8477 63.9727)" fill="#C00000"/>
<rect x="43.7422" y="44.1211" width="1.10295" height="1.10295" transform="rotate(-90 43.7422 44.1211)" fill="#C00000"/>
<rect x="44.8477" y="44.1211" width="1.10295" height="1.10295" transform="rotate(-90 44.8477 44.1211)" fill="#C00000"/>
<rect x="45.9492" y="44.1211" width="1.10295" height="5.51477" transform="rotate(-90 45.9492 44.1211)" fill="#C00000"/>
<rect x="47.0547" y="43.0195" width="1.10295" height="1.10295" transform="rotate(-90 47.0547 43.0195)" fill="#C00000"/>
<rect x="48.1562" y="43.0195" width="1.10295" height="3.30886" transform="rotate(-90 48.1562 43.0195)" fill="#C00000"/>
<rect x="49.2578" y="41.918" width="1.10295" height="2.20591" transform="rotate(-90 49.2578 41.918)" fill="#C00000"/>
<rect x="50.3594" y="40.8125" width="1.10295" height="1.10295" transform="rotate(-90 50.3594 40.8125)" fill="#C00000"/>
<rect x="51.4648" y="39.7109" width="1.10295" height="4.41182" transform="rotate(-90 51.4648 39.7109)" fill="#C00000"/>
<rect x="52.5664" y="38.6055" width="1.10295" height="3.30886" transform="rotate(-90 52.5664 38.6055)" fill="#C00000"/>
<rect x="53.6719" y="37.5039" width="1.10295" height="2.20591" transform="rotate(-90 53.6719 37.5039)" fill="#C00000"/>
<rect x="54.7734" y="36.4023" width="1.10295" height="1.10295" transform="rotate(-90 54.7734 36.4023)" fill="#C00000"/>
<rect x="54.7734" y="35.3008" width="1.10295" height="1.10295" transform="rotate(-90 54.7734 35.3008)" fill="#C00000"/>
<rect x="54.7734" y="34.1953" width="1.10295" height="1.10295" transform="rotate(-90 54.7734 34.1953)" fill="#C00000"/>
<rect x="54.7734" y="33.0938" width="1.10295" height="1.10295" transform="rotate(-90 54.7734 33.0938)" fill="#C00000"/>
<rect x="54.7734" y="31.9883" width="1.10295" height="1.10295" transform="rotate(-90 54.7734 31.9883)" fill="#C00000"/>
<rect x="54.7734" y="30.8867" width="1.10295" height="1.10295" transform="rotate(-90 54.7734 30.8867)" fill="#C00000"/>
<rect x="54.7734" y="29.7852" width="1.10295" height="1.10295" transform="rotate(-90 54.7734 29.7852)" fill="#C00000"/>
<rect x="54.7734" y="28.6836" width="1.10295" height="1.10295" transform="rotate(-90 54.7734 28.6836)" fill="#C00000"/>
<rect x="54.7734" y="27.5703" width="1.10295" height="1.10295" transform="rotate(-90 54.7734 27.5703)" fill="#C00000"/>
<rect x="54.7734" y="26.4727" width="1.10295" height="1.10295" transform="rotate(-90 54.7734 26.4727)" fill="#C00000"/>
<rect x="54.7734" y="25.3672" width="1.10295" height="1.10295" transform="rotate(-90 54.7734 25.3672)" fill="#C00000"/>
<rect x="53.6719" y="24.2656" width="1.10295" height="2.20591" transform="rotate(-90 53.6719 24.2656)" fill="#C00000"/>
<rect x="52.5664" y="23.1602" width="1.10295" height="3.30886" transform="rotate(-90 52.5664 23.1602)" fill="#C00000"/>
<rect x="51.4648" y="22.0586" width="1.10295" height="4.41182" transform="rotate(-90 51.4648 22.0586)" fill="#C00000"/>
<rect x="50.3594" y="20.9531" width="1.10295" height="5.51477" transform="rotate(-90 50.3594 20.9531)" fill="#C00000"/>
<rect x="49.2578" y="19.8555" width="1.10295" height="6.61773" transform="rotate(-90 49.2578 19.8555)" fill="#C00000"/>
<rect x="48.1562" y="18.75" width="1.10295" height="7.72068" transform="rotate(-90 48.1562 18.75)" fill="#C00000"/>
<rect x="47.0547" y="17.6484" width="1.10295" height="8.82363" transform="rotate(-90 47.0547 17.6484)" fill="#C00000"/>
<rect x="45.9492" y="17.6484" width="1.10295" height="1.10295" transform="rotate(-90 45.9492 17.6484)" fill="#C00000"/>
<rect x="30.5039" y="60.6641" width="16.5443" height="15.4414" transform="rotate(-90 30.5039 60.6641)" fill="#C00000"/>
<rect x="53.6719" y="8.82422" width="1.10295" height="1.10295" transform="rotate(-90 53.6719 8.82422)" fill="#FE7070"/>
<rect x="53.6719" y="8.82422" width="1.10295" height="1.10295" transform="rotate(-90 53.6719 8.82422)" fill="#FE7070"/>
<rect x="53.6719" y="7.71875" width="1.10295" height="1.10295" transform="rotate(-90 53.6719 7.71875)" fill="#FE7070"/>
<rect x="53.6719" y="7.71875" width="1.10295" height="1.10295" transform="rotate(-90 53.6719 7.71875)" fill="#FE7070"/>
<rect x="58.082" y="12.1328" width="1.10295" height="1.10295" transform="rotate(-90 58.082 12.1328)" fill="#FE7070"/>
<rect x="58.082" y="12.1328" width="1.10295" height="1.10295" transform="rotate(-90 58.082 12.1328)" fill="#FE7070"/>
<rect x="58.082" y="11.0312" width="1.10295" height="1.10295" transform="rotate(-90 58.082 11.0312)" fill="#FE7070"/>
<rect x="58.082" y="11.0312" width="1.10295" height="1.10295" transform="rotate(-90 58.082 11.0312)" fill="#FE7070"/>
<rect x="61.3906" y="15.4414" width="1.10295" height="1.10295" transform="rotate(-90 61.3906 15.4414)" fill="#FE7070"/>
<rect x="61.3906" y="15.4414" width="1.10295" height="1.10295" transform="rotate(-90 61.3906 15.4414)" fill="#FE7070"/>
<rect x="52.5664" y="9.92578" width="1.10295" height="1.10295" transform="rotate(-90 52.5664 9.92578)" fill="#FE7070"/>
<rect x="52.5664" y="9.92578" width="1.10295" height="1.10295" transform="rotate(-90 52.5664 9.92578)" fill="#FE7070"/>
<rect x="56.9766" y="13.2383" width="1.10295" height="1.10295" transform="rotate(-90 56.9766 13.2383)" fill="#FE7070"/>
<rect x="56.9766" y="13.2383" width="1.10295" height="1.10295" transform="rotate(-90 56.9766 13.2383)" fill="#FE7070"/>
<rect x="60.2891" y="16.543" width="1.10295" height="1.10295" transform="rotate(-90 60.2891 16.543)" fill="#FE7070"/>
<rect x="60.2891" y="16.543" width="1.10295" height="1.10295" transform="rotate(-90 60.2891 16.543)" fill="#FE7070"/>
<rect x="54.7734" y="9.92578" width="1.10295" height="1.10295" transform="rotate(-90 54.7734 9.92578)" fill="#FE7070"/>
<rect x="54.7734" y="9.92578" width="1.10295" height="1.10295" transform="rotate(-90 54.7734 9.92578)" fill="#FE7070"/>
<rect x="59.1836" y="13.2383" width="1.10295" height="1.10295" transform="rotate(-90 59.1836 13.2383)" fill="#FE7070"/>
<rect x="59.1836" y="13.2383" width="1.10295" height="1.10295" transform="rotate(-90 59.1836 13.2383)" fill="#FE7070"/>
<rect x="62.4922" y="16.543" width="1.10295" height="1.10295" transform="rotate(-90 62.4922 16.543)" fill="#FE7070"/>
<rect x="62.4922" y="16.543" width="1.10295" height="1.10295" transform="rotate(-90 62.4922 16.543)" fill="#FE7070"/>
<rect x="49.2578" y="7.71875" width="1.10295" height="1.10295" transform="rotate(-90 49.2578 7.71875)" fill="#FE7070"/>
<rect x="49.2578" y="7.71875" width="1.10295" height="1.10295" transform="rotate(-90 49.2578 7.71875)" fill="#FE7070"/>
<rect x="53.6719" y="11.0312" width="1.10295" height="1.10295" transform="rotate(-90 53.6719 11.0312)" fill="#FE7070"/>
<rect x="53.6719" y="11.0312" width="1.10295" height="1.10295" transform="rotate(-90 53.6719 11.0312)" fill="#FE7070"/>
<rect x="58.082" y="14.3359" width="1.10295" height="1.10295" transform="rotate(-90 58.082 14.3359)" fill="#FE7070"/>
<rect x="58.082" y="14.3359" width="1.10295" height="1.10295" transform="rotate(-90 58.082 14.3359)" fill="#FE7070"/>
<rect x="61.3906" y="17.6484" width="1.10295" height="1.10295" transform="rotate(-90 61.3906 17.6484)" fill="#FE7070"/>
<rect x="61.3906" y="17.6484" width="1.10295" height="1.10295" transform="rotate(-90 61.3906 17.6484)" fill="#FE7070"/>
<rect x="51.4648" y="7.71875" width="1.10295" height="1.10295" transform="rotate(-90 51.4648 7.71875)" fill="#FE7070"/>
<rect x="51.4648" y="7.71875" width="1.10295" height="1.10295" transform="rotate(-90 51.4648 7.71875)" fill="#FE7070"/>
<rect x="55.875" y="11.0312" width="1.10295" height="1.10295" transform="rotate(-90 55.875 11.0312)" fill="#FE7070"/>
<rect x="55.875" y="11.0312" width="1.10295" height="1.10295" transform="rotate(-90 55.875 11.0312)" fill="#FE7070"/>
<rect x="60.2891" y="14.3359" width="1.10295" height="1.10295" transform="rotate(-90 60.2891 14.3359)" fill="#FE7070"/>
<rect x="60.2891" y="14.3359" width="1.10295" height="1.10295" transform="rotate(-90 60.2891 14.3359)" fill="#FE7070"/>
<rect x="63.5938" y="17.6484" width="1.10295" height="1.10295" transform="rotate(-90 63.5938 17.6484)" fill="#FE7070"/>
<rect x="63.5938" y="17.6484" width="1.10295" height="1.10295" transform="rotate(-90 63.5938 17.6484)" fill="#FE7070"/>
<rect x="50.3594" y="8.82422" width="1.10295" height="1.10295" transform="rotate(-90 50.3594 8.82422)" fill="#FE7070"/>
<rect x="50.3594" y="8.82422" width="1.10295" height="1.10295" transform="rotate(-90 50.3594 8.82422)" fill="#FE7070"/>
<rect x="54.7734" y="12.1328" width="1.10295" height="1.10295" transform="rotate(-90 54.7734 12.1328)" fill="#FE7070"/>
<rect x="54.7734" y="12.1328" width="1.10295" height="1.10295" transform="rotate(-90 54.7734 12.1328)" fill="#FE7070"/>
<rect x="59.1836" y="15.4414" width="1.10295" height="1.10295" transform="rotate(-90 59.1836 15.4414)" fill="#FE7070"/>
<rect x="59.1836" y="15.4414" width="1.10295" height="1.10295" transform="rotate(-90 59.1836 15.4414)" fill="#FE7070"/>
<rect x="62.4922" y="18.75" width="1.10295" height="1.10295" transform="rotate(-90 62.4922 18.75)" fill="#FE7070"/>
<rect x="62.4922" y="18.75" width="1.10295" height="1.10295" transform="rotate(-90 62.4922 18.75)" fill="#FE7070"/>
<rect x="54.7734" y="8.82422" width="1.10295" height="1.10295" transform="rotate(-90 54.7734 8.82422)" fill="#FE7070"/>
<rect x="54.7734" y="8.82422" width="1.10295" height="1.10295" transform="rotate(-90 54.7734 8.82422)" fill="#FE7070"/>
<rect x="59.1836" y="12.1328" width="1.10295" height="1.10295" transform="rotate(-90 59.1836 12.1328)" fill="#FE7070"/>
<rect x="59.1836" y="12.1328" width="1.10295" height="1.10295" transform="rotate(-90 59.1836 12.1328)" fill="#FE7070"/>
<rect x="62.4922" y="15.4414" width="1.10295" height="1.10295" transform="rotate(-90 62.4922 15.4414)" fill="#FE7070"/>
<rect x="62.4922" y="15.4414" width="1.10295" height="1.10295" transform="rotate(-90 62.4922 15.4414)" fill="#FE7070"/>
<rect x="53.6719" y="9.92578" width="1.10295" height="1.10295" transform="rotate(-90 53.6719 9.92578)" fill="#FE7070"/>
<rect x="53.6719" y="9.92578" width="1.10295" height="1.10295" transform="rotate(-90 53.6719 9.92578)" fill="#FE7070"/>
<rect x="58.082" y="13.2383" width="1.10295" height="1.10295" transform="rotate(-90 58.082 13.2383)" fill="#FE7070"/>
<rect x="58.082" y="13.2383" width="1.10295" height="1.10295" transform="rotate(-90 58.082 13.2383)" fill="#FE7070"/>
<rect x="61.3906" y="16.543" width="1.10295" height="1.10295" transform="rotate(-90 61.3906 16.543)" fill="#FE7070"/>
<rect x="61.3906" y="16.543" width="1.10295" height="1.10295" transform="rotate(-90 61.3906 16.543)" fill="#FE7070"/>
<rect x="55.875" y="9.92578" width="1.10295" height="1.10295" transform="rotate(-90 55.875 9.92578)" fill="#FE7070"/>
<rect x="55.875" y="9.92578" width="1.10295" height="1.10295" transform="rotate(-90 55.875 9.92578)" fill="#FE7070"/>
<rect x="60.2891" y="13.2383" width="1.10295" height="1.10295" transform="rotate(-90 60.2891 13.2383)" fill="#FE7070"/>
<rect x="60.2891" y="13.2383" width="1.10295" height="1.10295" transform="rotate(-90 60.2891 13.2383)" fill="#FE7070"/>
<rect x="63.5938" y="16.543" width="1.10295" height="1.10295" transform="rotate(-90 63.5938 16.543)" fill="#FE7070"/>
<rect x="63.5938" y="16.543" width="1.10295" height="1.10295" transform="rotate(-90 63.5938 16.543)" fill="#FE7070"/>
<rect x="50.3594" y="7.71875" width="1.10295" height="1.10295" transform="rotate(-90 50.3594 7.71875)" fill="#FE7070"/>
<rect x="50.3594" y="7.71875" width="1.10295" height="1.10295" transform="rotate(-90 50.3594 7.71875)" fill="#FE7070"/>
<rect x="54.7734" y="11.0312" width="1.10295" height="1.10295" transform="rotate(-90 54.7734 11.0312)" fill="#FE7070"/>
<rect x="54.7734" y="11.0312" width="1.10295" height="1.10295" transform="rotate(-90 54.7734 11.0312)" fill="#FE7070"/>
<rect x="59.1836" y="14.3359" width="1.10295" height="1.10295" transform="rotate(-90 59.1836 14.3359)" fill="#FE7070"/>
<rect x="59.1836" y="14.3359" width="1.10295" height="1.10295" transform="rotate(-90 59.1836 14.3359)" fill="#FE7070"/>
<rect x="62.4922" y="17.6484" width="1.10295" height="1.10295" transform="rotate(-90 62.4922 17.6484)" fill="#FE7070"/>
<rect x="62.4922" y="17.6484" width="1.10295" height="1.10295" transform="rotate(-90 62.4922 17.6484)" fill="#FE7070"/>
<rect x="52.5664" y="7.71875" width="1.10295" height="1.10295" transform="rotate(-90 52.5664 7.71875)" fill="#FE7070"/>
<rect x="52.5664" y="7.71875" width="1.10295" height="1.10295" transform="rotate(-90 52.5664 7.71875)" fill="#FE7070"/>
<rect x="56.9766" y="11.0312" width="1.10295" height="1.10295" transform="rotate(-90 56.9766 11.0312)" fill="#FE7070"/>
<rect x="56.9766" y="11.0312" width="1.10295" height="1.10295" transform="rotate(-90 56.9766 11.0312)" fill="#FE7070"/>
<rect x="61.3906" y="14.3359" width="1.10295" height="1.10295" transform="rotate(-90 61.3906 14.3359)" fill="#FE7070"/>
<rect x="61.3906" y="14.3359" width="1.10295" height="1.10295" transform="rotate(-90 61.3906 14.3359)" fill="#FE7070"/>
<rect x="64.6992" y="17.6484" width="1.10295" height="1.10295" transform="rotate(-90 64.6992 17.6484)" fill="#FE7070"/>
<rect x="64.6992" y="17.6484" width="1.10295" height="1.10295" transform="rotate(-90 64.6992 17.6484)" fill="#FE7070"/>
<rect x="51.4648" y="8.82422" width="1.10295" height="1.10295" transform="rotate(-90 51.4648 8.82422)" fill="#FE7070"/>
<rect x="51.4648" y="8.82422" width="1.10295" height="1.10295" transform="rotate(-90 51.4648 8.82422)" fill="#FE7070"/>
<rect x="55.875" y="12.1328" width="1.10295" height="1.10295" transform="rotate(-90 55.875 12.1328)" fill="#FE7070"/>
<rect x="55.875" y="12.1328" width="1.10295" height="1.10295" transform="rotate(-90 55.875 12.1328)" fill="#FE7070"/>
<rect x="60.2891" y="15.4414" width="1.10295" height="1.10295" transform="rotate(-90 60.2891 15.4414)" fill="#FE7070"/>
<rect x="60.2891" y="15.4414" width="1.10295" height="1.10295" transform="rotate(-90 60.2891 15.4414)" fill="#FE7070"/>
<rect x="63.5938" y="18.75" width="1.10295" height="1.10295" transform="rotate(-90 63.5938 18.75)" fill="#FE7070"/>
<rect x="63.5938" y="18.75" width="1.10295" height="1.10295" transform="rotate(-90 63.5938 18.75)" fill="#FE7070"/>
<rect x="52.5664" y="8.82422" width="1.10295" height="1.10295" transform="rotate(-90 52.5664 8.82422)" fill="#FE7070"/>
<rect x="52.5664" y="8.82422" width="1.10295" height="1.10295" transform="rotate(-90 52.5664 8.82422)" fill="#FE7070"/>
<rect x="56.9766" y="12.1328" width="1.10295" height="1.10295" transform="rotate(-90 56.9766 12.1328)" fill="#FE7070"/>
<rect x="56.9766" y="12.1328" width="1.10295" height="1.10295" transform="rotate(-90 56.9766 12.1328)" fill="#FE7070"/>
<rect x="61.3906" y="15.4414" width="1.10295" height="1.10295" transform="rotate(-90 61.3906 15.4414)" fill="#FE7070"/>
<rect x="61.3906" y="15.4414" width="1.10295" height="1.10295" transform="rotate(-90 61.3906 15.4414)" fill="#FE7070"/>
<rect x="64.6992" y="18.75" width="1.10295" height="1.10295" transform="rotate(-90 64.6992 18.75)" fill="#FE7070"/>
<rect x="64.6992" y="18.75" width="1.10295" height="1.10295" transform="rotate(-90 64.6992 18.75)" fill="#FE7070"/>
<rect x="66.9062" y="26.4727" width="1.10295" height="1.10295" transform="rotate(-90 66.9062 26.4727)" fill="#FE7070"/>
<rect x="66.9062" y="26.4727" width="1.10295" height="1.10295" transform="rotate(-90 66.9062 26.4727)" fill="#FE7070"/>
<rect x="66.9062" y="27.5703" width="1.10295" height="1.10295" transform="rotate(-90 66.9062 27.5703)" fill="#FE7070"/>
<rect x="66.9062" y="27.5703" width="1.10295" height="1.10295" transform="rotate(-90 66.9062 27.5703)" fill="#FE7070"/>
<rect x="66.9062" y="28.6836" width="1.10295" height="1.10295" transform="rotate(-90 66.9062 28.6836)" fill="#FE7070"/>
<rect x="66.9062" y="28.6836" width="1.10295" height="1.10295" transform="rotate(-90 66.9062 28.6836)" fill="#FE7070"/>
<rect x="66.9062" y="29.7852" width="1.10295" height="1.10295" transform="rotate(-90 66.9062 29.7852)" fill="#FE7070"/>
<rect x="66.9062" y="29.7852" width="1.10295" height="1.10295" transform="rotate(-90 66.9062 29.7852)" fill="#FE7070"/>
<rect x="66.9062" y="30.8867" width="1.10295" height="1.10295" transform="rotate(-90 66.9062 30.8867)" fill="#FE7070"/>
<rect x="66.9062" y="30.8867" width="1.10295" height="1.10295" transform="rotate(-90 66.9062 30.8867)" fill="#FE7070"/>
<rect x="66.9062" y="31.9883" width="1.10295" height="1.10295" transform="rotate(-90 66.9062 31.9883)" fill="#FE7070"/>
<rect x="66.9062" y="31.9883" width="1.10295" height="1.10295" transform="rotate(-90 66.9062 31.9883)" fill="#FE7070"/>
<rect x="51.4648" y="9.92578" width="1.10295" height="1.10295" transform="rotate(-90 51.4648 9.92578)" fill="#FE7070"/>
<rect x="51.4648" y="9.92578" width="1.10295" height="1.10295" transform="rotate(-90 51.4648 9.92578)" fill="#FE7070"/>
<rect x="55.875" y="13.2383" width="1.10295" height="1.10295" transform="rotate(-90 55.875 13.2383)" fill="#FE7070"/>
<rect x="55.875" y="13.2383" width="1.10295" height="1.10295" transform="rotate(-90 55.875 13.2383)" fill="#FE7070"/>
<rect x="60.2891" y="16.543" width="1.10295" height="1.10295" transform="rotate(-90 60.2891 16.543)" fill="#FE7070"/>
<rect x="60.2891" y="16.543" width="1.10295" height="1.10295" transform="rotate(-90 60.2891 16.543)" fill="#FE7070"/>
<rect x="63.5938" y="19.8555" width="1.10295" height="1.10295" transform="rotate(-90 63.5938 19.8555)" fill="#FE7070"/>
<rect x="63.5938" y="19.8555" width="1.10295" height="1.10295" transform="rotate(-90 63.5938 19.8555)" fill="#FE7070"/>
<rect x="99.9922" y="98.2109" width="99.9951" height="1.10295" transform="rotate(-179.652 99.9922 98.2109)" fill="#C00000"/>
<rect x="0.726562" y="97.0625" width="87.1334" height="1.10295" fill="#C00000"/>
</svg>
